<mxfile host="app.diagrams.net" modified="2024-06-14T17:12:02.690Z" agent="Mozilla/5.0 (X11; Linux x86_64) AppleWebKit/537.36 (KHTML, like Gecko) Chrome/125.0.0.0 Safari/537.36" etag="nBr1-ui0CLcN_H0EeaRO" version="24.5.4" type="github">
  <diagram name="Page-1" id="zpEDcPM47LasXTqfTNNl">
    <mxGraphModel dx="2284" dy="778" grid="1" gridSize="10" guides="1" tooltips="1" connect="1" arrows="1" fold="1" page="1" pageScale="1" pageWidth="850" pageHeight="1100" math="0" shadow="0">
      <root>
        <mxCell id="0" />
        <mxCell id="1" parent="0" />
        <mxCell id="rSlo7GayfreuNFQ6bTWU-41" value="" style="endArrow=none;dashed=1;html=1;dashPattern=1 3;strokeWidth=2;rounded=0;" edge="1" parent="1">
          <mxGeometry width="50" height="50" relative="1" as="geometry">
            <mxPoint x="790" y="1100" as="sourcePoint" />
            <mxPoint x="790" y="187" as="targetPoint" />
          </mxGeometry>
        </mxCell>
        <mxCell id="rSlo7GayfreuNFQ6bTWU-40" value="" style="endArrow=none;dashed=1;html=1;dashPattern=1 3;strokeWidth=2;rounded=0;" edge="1" parent="1">
          <mxGeometry width="50" height="50" relative="1" as="geometry">
            <mxPoint x="480" y="1088" as="sourcePoint" />
            <mxPoint x="480" y="175" as="targetPoint" />
          </mxGeometry>
        </mxCell>
        <mxCell id="rSlo7GayfreuNFQ6bTWU-39" value="" style="endArrow=none;dashed=1;html=1;dashPattern=1 3;strokeWidth=2;rounded=0;" edge="1" parent="1">
          <mxGeometry width="50" height="50" relative="1" as="geometry">
            <mxPoint x="150" y="1083" as="sourcePoint" />
            <mxPoint x="150" y="170" as="targetPoint" />
          </mxGeometry>
        </mxCell>
        <mxCell id="rSlo7GayfreuNFQ6bTWU-2" value="10.50.27.129" style="edgeLabel;html=1;align=center;verticalAlign=middle;resizable=0;points=[];" vertex="1" connectable="0" parent="1">
          <mxGeometry x="55" y="275" as="geometry" />
        </mxCell>
        <mxCell id="rSlo7GayfreuNFQ6bTWU-30" style="edgeStyle=orthogonalEdgeStyle;rounded=0;orthogonalLoop=1;jettySize=auto;html=1;exitX=1;exitY=0.5;exitDx=0;exitDy=0;exitPerimeter=0;" edge="1" parent="1" source="rSlo7GayfreuNFQ6bTWU-3" target="rSlo7GayfreuNFQ6bTWU-25">
          <mxGeometry relative="1" as="geometry" />
        </mxCell>
        <mxCell id="rSlo7GayfreuNFQ6bTWU-3" value="blue-internet-host-student-11" style="fontColor=#0066CC;verticalAlign=top;verticalLabelPosition=bottom;labelPosition=center;align=center;html=1;outlineConnect=0;fillColor=#CCCCCC;strokeColor=#6881B3;gradientColor=none;gradientDirection=north;strokeWidth=2;shape=mxgraph.networks.pc;" vertex="1" parent="1">
          <mxGeometry x="95" y="240" width="100" height="70" as="geometry" />
        </mxCell>
        <mxCell id="rSlo7GayfreuNFQ6bTWU-4" value="10.10.0.40" style="edgeLabel;html=1;align=center;verticalAlign=middle;resizable=0;points=[];" vertex="1" connectable="0" parent="1">
          <mxGeometry x="225" y="265" as="geometry" />
        </mxCell>
        <mxCell id="rSlo7GayfreuNFQ6bTWU-5" value="" style="group" vertex="1" connectable="0" parent="1">
          <mxGeometry x="-310" y="40" width="225" height="150" as="geometry" />
        </mxCell>
        <mxCell id="rSlo7GayfreuNFQ6bTWU-6" value="" style="group" vertex="1" connectable="0" parent="rSlo7GayfreuNFQ6bTWU-5">
          <mxGeometry y="20" width="225" height="130" as="geometry" />
        </mxCell>
        <mxCell id="rSlo7GayfreuNFQ6bTWU-7" value="template" style="fontColor=#0066CC;verticalAlign=top;verticalLabelPosition=bottom;labelPosition=center;align=center;html=1;outlineConnect=0;fillColor=#CCCCCC;strokeColor=#6881B3;gradientColor=none;gradientDirection=north;strokeWidth=2;shape=mxgraph.networks.pc;" vertex="1" parent="rSlo7GayfreuNFQ6bTWU-6">
          <mxGeometry x="35" width="100" height="70" as="geometry" />
        </mxCell>
        <mxCell id="rSlo7GayfreuNFQ6bTWU-8" value="21&lt;div&gt;80&lt;/div&gt;" style="text;html=1;align=center;verticalAlign=middle;resizable=0;points=[];autosize=1;strokeColor=none;fillColor=none;" vertex="1" parent="rSlo7GayfreuNFQ6bTWU-6">
          <mxGeometry x="15" y="90" width="40" height="40" as="geometry" />
        </mxCell>
        <mxCell id="rSlo7GayfreuNFQ6bTWU-9" value="xxx" style="text;html=1;align=center;verticalAlign=middle;resizable=0;points=[];autosize=1;strokeColor=none;fillColor=none;" vertex="1" parent="rSlo7GayfreuNFQ6bTWU-6">
          <mxGeometry x="160" y="5" width="40" height="30" as="geometry" />
        </mxCell>
        <mxCell id="rSlo7GayfreuNFQ6bTWU-10" value="10.5.0.1" style="text;html=1;align=center;verticalAlign=middle;resizable=0;points=[];autosize=1;strokeColor=none;fillColor=none;" vertex="1" parent="rSlo7GayfreuNFQ6bTWU-6">
          <mxGeometry x="-45" y="10" width="70" height="30" as="geometry" />
        </mxCell>
        <mxCell id="rSlo7GayfreuNFQ6bTWU-23" value="" style="group" vertex="1" connectable="0" parent="1">
          <mxGeometry x="390" y="220" width="235" height="150" as="geometry" />
        </mxCell>
        <mxCell id="rSlo7GayfreuNFQ6bTWU-24" value="" style="group" vertex="1" connectable="0" parent="rSlo7GayfreuNFQ6bTWU-23">
          <mxGeometry y="20" width="235" height="130" as="geometry" />
        </mxCell>
        <mxCell id="rSlo7GayfreuNFQ6bTWU-25" value="net-ssh-01" style="fontColor=#0066CC;verticalAlign=top;verticalLabelPosition=bottom;labelPosition=center;align=center;html=1;outlineConnect=0;fillColor=#CCCCCC;strokeColor=#6881B3;gradientColor=none;gradientDirection=north;strokeWidth=2;shape=mxgraph.networks.pc;" vertex="1" parent="rSlo7GayfreuNFQ6bTWU-24">
          <mxGeometry x="35" width="100" height="70" as="geometry" />
        </mxCell>
        <mxCell id="rSlo7GayfreuNFQ6bTWU-26" value="23" style="text;html=1;align=center;verticalAlign=middle;resizable=0;points=[];autosize=1;strokeColor=none;fillColor=none;" vertex="1" parent="rSlo7GayfreuNFQ6bTWU-24">
          <mxGeometry x="15" y="95" width="40" height="30" as="geometry" />
        </mxCell>
        <mxCell id="rSlo7GayfreuNFQ6bTWU-27" value="192.168.0.10/24" style="text;html=1;align=center;verticalAlign=middle;resizable=0;points=[];autosize=1;strokeColor=none;fillColor=none;" vertex="1" parent="rSlo7GayfreuNFQ6bTWU-24">
          <mxGeometry x="139" y="9" width="110" height="30" as="geometry" />
        </mxCell>
        <mxCell id="rSlo7GayfreuNFQ6bTWU-28" value="10.50.27.147" style="text;html=1;align=center;verticalAlign=middle;resizable=0;points=[];autosize=1;strokeColor=none;fillColor=none;" vertex="1" parent="rSlo7GayfreuNFQ6bTWU-24">
          <mxGeometry x="-55" y="10" width="90" height="30" as="geometry" />
        </mxCell>
        <mxCell id="rSlo7GayfreuNFQ6bTWU-37" value="22&lt;div&gt;80&lt;/div&gt;" style="text;html=1;align=center;verticalAlign=middle;resizable=0;points=[];autosize=1;strokeColor=none;fillColor=none;" vertex="1" parent="rSlo7GayfreuNFQ6bTWU-24">
          <mxGeometry x="110" y="90" width="40" height="40" as="geometry" />
        </mxCell>
        <mxCell id="rSlo7GayfreuNFQ6bTWU-29" value="net3_student11&lt;div&gt;password11&lt;/div&gt;" style="text;html=1;align=center;verticalAlign=middle;resizable=0;points=[];autosize=1;strokeColor=none;fillColor=none;" vertex="1" parent="1">
          <mxGeometry x="15" y="33" width="110" height="40" as="geometry" />
        </mxCell>
        <mxCell id="rSlo7GayfreuNFQ6bTWU-31" value="" style="group" vertex="1" connectable="0" parent="1">
          <mxGeometry x="700" y="215" width="225" height="150" as="geometry" />
        </mxCell>
        <mxCell id="rSlo7GayfreuNFQ6bTWU-32" value="" style="group" vertex="1" connectable="0" parent="rSlo7GayfreuNFQ6bTWU-31">
          <mxGeometry y="20" width="225" height="130" as="geometry" />
        </mxCell>
        <mxCell id="rSlo7GayfreuNFQ6bTWU-33" value="template" style="fontColor=#0066CC;verticalAlign=top;verticalLabelPosition=bottom;labelPosition=center;align=center;html=1;outlineConnect=0;fillColor=#CCCCCC;strokeColor=#6881B3;gradientColor=none;gradientDirection=north;strokeWidth=2;shape=mxgraph.networks.pc;" vertex="1" parent="rSlo7GayfreuNFQ6bTWU-32">
          <mxGeometry x="35" width="100" height="70" as="geometry" />
        </mxCell>
        <mxCell id="rSlo7GayfreuNFQ6bTWU-34" value="xx" style="text;html=1;align=center;verticalAlign=middle;resizable=0;points=[];autosize=1;strokeColor=none;fillColor=none;" vertex="1" parent="rSlo7GayfreuNFQ6bTWU-32">
          <mxGeometry x="15" y="95" width="40" height="30" as="geometry" />
        </mxCell>
        <mxCell id="rSlo7GayfreuNFQ6bTWU-35" value="xxx" style="text;html=1;align=center;verticalAlign=middle;resizable=0;points=[];autosize=1;strokeColor=none;fillColor=none;" vertex="1" parent="rSlo7GayfreuNFQ6bTWU-32">
          <mxGeometry x="160" y="5" width="40" height="30" as="geometry" />
        </mxCell>
        <mxCell id="rSlo7GayfreuNFQ6bTWU-36" value="192.168.0.254" style="text;html=1;align=center;verticalAlign=middle;resizable=0;points=[];autosize=1;strokeColor=none;fillColor=none;" vertex="1" parent="rSlo7GayfreuNFQ6bTWU-32">
          <mxGeometry x="-60" y="12" width="100" height="30" as="geometry" />
        </mxCell>
        <mxCell id="rSlo7GayfreuNFQ6bTWU-38" value="#1 $ ssh student@10.50.27.129 -R 31101:localhost:22" style="html=1;shadow=0;dashed=0;align=center;verticalAlign=middle;shape=mxgraph.arrows2.arrow;dy=0;dx=10;notch=0;flipV=1;flipH=1;fillColor=#d5e8d4;strokeColor=#82b366;" vertex="1" parent="1">
          <mxGeometry x="150" y="390" width="320" height="30" as="geometry" />
        </mxCell>
        <mxCell id="rSlo7GayfreuNFQ6bTWU-42" value="#1 $ ssh student@localhost -p 31101 -D 9050" style="html=1;shadow=0;dashed=0;align=center;verticalAlign=middle;shape=mxgraph.arrows2.arrow;dy=0;dx=10;notch=0;flipV=1;flipH=0;fillColor=#dae8fc;strokeColor=#6c8ebf;" vertex="1" parent="1">
          <mxGeometry x="150" y="460" width="320" height="30" as="geometry" />
        </mxCell>
      </root>
    </mxGraphModel>
  </diagram>
</mxfile>
